<svg width="25" height="25" viewBox="0 0 410 379" fill="none" xmlns="http://www.w3.org/2000/svg">
    <path d="M122.559 378.864C190.246 378.864 245.118 323.992 245.118 256.305C245.118 188.617 190.246 133.746 122.559 133.746C54.8715 133.746 0 188.617 0 256.305C0 323.992 54.8715 378.864 122.559 378.864Z" fill="#04E061"/>
    <path d="M335.168 363.397C376.069 363.397 409.225 330.24 409.225 289.339C409.225 248.438 376.069 215.282 335.168 215.282C294.267 215.282 261.11 248.438 261.11 289.339C261.11 330.24 294.267 363.397 335.168 363.397Z" fill="#FF4053"/>
    <path d="M145.998 117.769C171.309 117.769 191.827 97.2511 191.827 71.9408C191.827 46.6305 171.309 26.1124 145.998 26.1124C120.688 26.1124 100.17 46.6305 100.17 71.9408C100.17 97.2511 120.688 117.769 145.998 117.769Z" fill="#965EEB"/>
    <path d="M306.397 199.29C361.429 199.29 406.042 154.677 406.042 99.6452C406.042 44.6125 361.429 0 306.397 0C251.364 0 206.752 44.6125 206.752 99.6452C206.752 154.677 251.364 199.29 306.397 199.29Z" fill="#00AAFF"/>
</svg>
